inDegrees=yes
name=ik_S54_A05_T02
DataType=double
version=3
OpenSimVersion=4.3-2021-08-27-4bc7ad9
endheader
time	pelvis_tilt	pelvis_list	pelvis_rotation	pelvis_tx	pelvis_ty	pelvis_tz	hip_flexion_r	hip_adduction_r	hip_rotation_r	knee_angle_r	knee_angle_r_beta	ankle_angle_r	subtalar_angle_r	mtp_angle_r	hip_flexion_l	hip_adduction_l	hip_rotation_l	knee_angle_l	knee_angle_l_beta	ankle_angle_l	subtalar_angle_l	mtp_angle_l	lumbar_extension	lumbar_bending	lumbar_rotation	arm_flex_r	arm_add_r	arm_rot_r	elbow_flex_r	pro_sup_r	wrist_flex_r	wrist_dev_r	arm_flex_l	arm_add_l	arm_rot_l	elbow_flex_l	pro_sup_l	wrist_flex_l	wrist_dev_l
14.03999999999979	-5.554082769734816	-5.414655040083585	26.89528954563487	0	0.9399999999999999	0	44.25148491511073	-10.42206798621336	-10.46732051962047	54.35243207720784	0.9486288962138577	0	0	0	44.25148491511073	-10.42206798621336	-10.46732051962047	54.35243207720784	0.9486288962138577	0	0	0	-5.169139142159295	-5.713772092098504	-0.2530655432091123	78.12853140760062	32.62590458668753	5.078931676545001	21.88905682675792	111.0296735957781	0	0	33.03308770260451	-16.61462620394535	0.4105247091994809	47.32024917941072	143.1789635854211	0	0
14.05999999999979	-5.550064302933989	-5.418047263811752	26.88900394799192	0	0.9399999999999999	0	44.25267797622756	-10.41980715395351	-10.46569513406416	54.35313117521486	0.9486410977758741	0	0	0	44.25267797622756	-10.41980715395351	-10.46569513406416	54.35313117521486	0.9486410977758741	0	0	0	-5.169588090478744	-5.714816757160567	-0.2524429778229546	78.16001689666854	32.62007752667375	5.07493713770062	21.95549273949641	110.9838159579691	0	0	33.01428379756452	-16.63511926227899	0.425516160002653	47.3498084131825	143.0889269124027	0	0
14.07999999999979	-5.546704833887275	-5.42022267086466	26.84424657641832	0	0.9399999999999999	0	44.25199368212328	-10.42124115347965	-10.4666911703613	54.35274404966011	0.9486343411603252	0	0	0	44.25199368212328	-10.42124115347965	-10.4666911703613	54.35274404966011	0.9486343411603252	0	0	0	-5.167949896201006	-5.717657299668621	-0.274760777163587	78.22323120075036	32.73288988805403	5.046615526741224	21.79014036310927	111.0336705181477	0	0	33.01321091410544	-16.69073258540442	0.3681979756074858	47.27937630841431	143.1491212973764	0	0
14.09999999999979	-5.54688408162984	-5.415361752101552	26.82149007682732	0	0.9399999999999999	0	44.25211832673662	-10.42093097351937	-10.4664961940843	54.35281519703123	0.9486355829162055	0	0	0	44.25211832673662	-10.42093097351937	-10.4664961940843	54.35281519703123	0.9486355829162055	0	0	0	-5.167362957127977	-5.71102082957943	-0.2883099051343381	78.27087446103397	32.81407252933873	5.020980262281219	21.72791659575914	111.109549761402	0	0	33.01598346682322	-16.72197993400912	0.3762832773246274	47.27080833231575	143.0704126026273	0	0
14.11999999999979	-5.54459029183708	-5.408166851775136	26.82793057684804	0	0.9399999999999999	0	44.2517651858555	-10.4216143282996	-10.46699251410985	54.35261283865391	0.9486320510962523	0	0	0	44.2517651858555	-10.4216143282996	-10.46699251410985	54.35261283865391	0.9486320510962523	0	0	0	-5.161484903131018	-5.7064964947885	-0.2906292684530062	78.31659799134569	32.84640424776517	4.996115025283983	21.67439010682252	111.1498204490901	0	0	33.01081232971588	-16.75293635445092	0.4057346654221846	47.25841989834145	143.1844284031689	0	0
14.13999999999979	-5.539459354960425	-5.405757073242028	26.85430193230189	0	0.9399999999999999	0	44.25334127935228	-10.41925359921286	-10.46509229852109	54.35356512624812	0.9486486716501971	0	0	0	44.25334127935228	-10.41925359921286	-10.46509229852109	54.35356512624812	0.9486486716501971	0	0	0	-5.159015817398401	-5.701877900719684	-0.2869392483609424	78.32218316737837	32.85292800365758	5.036153149325897	21.74182218267794	111.0730918547554	0	0	33.02574810160129	-16.75730598365371	0.4669367517359077	47.28289796983523	143.1403999286359	0	0
14.15999999999979	-5.538592979105125	-5.407261207373999	26.90835946577557	0	0.9399999999999999	0	44.25562763509166	-10.41621274510206	-10.46248919827348	54.35496785896775	0.9486731539546801	0	0	0	44.25562763509166	-10.41621274510206	-10.46248919827348	54.35496785896775	0.9486731539546801	0	0	0	-5.165847111391669	-5.693177408717811	-0.3065069419348349	78.30472018086367	32.82971023966996	5.201554889950623	21.83198456286306	110.691224151417	0	0	33.05309249106411	-16.74856130403785	0.5329920523798796	47.22477320869763	143.130554190664	0	0
14.17999999999979	-5.531835458322433	-5.401672468019778	26.91263690194151	0	0.9399999999999999	0	44.25614938539606	-10.41565721034739	-10.46195612310225	54.3552973308753	0.9486789043242596	0	0	0	44.25614938539606	-10.41565721034739	-10.46195612310225	54.3552973308753	0.9486789043242596	0	0	0	-5.15976376877184	-5.68739905780139	-0.3220342879065609	78.27089025887619	32.89137755079155	5.190412468691157	21.79936239996383	110.5551590994432	0	0	33.07201909171565	-16.76013758733117	0.5292364201709225	47.19962139673439	143.1464141401772	0	0
14.19999999999979	-5.531674157766966	-5.394719246152975	26.87904871374656	0	0.9399999999999999	0	44.25624250307888	-10.41547941720003	-10.46182843874437	54.35535251864133	0.9486798675324836	0	0	0	44.25624250307888	-10.41547941720003	-10.46182843874437	54.35535251864133	0.9486798675324836	0	0	0	-5.158265057174271	-5.6784714561819	-0.3404307288198622	78.27484301895566	32.97527600076076	5.09742060265435	21.78200655682943	110.541180423783	0	0	33.06439516456493	-16.77715631109834	0.4641472679709151	47.17915568660998	143.150461668472	0	0
14.21999999999979	-5.519711342286814	-5.406376096320654	26.83587663688824	0	0.9399999999999999	0	44.25561542195535	-10.41680577219584	-10.46274900314551	54.35499786081292	0.94867367758566	0	0	0	44.25561542195535	-10.41680577219584	-10.46274900314551	54.35499786081292	0.94867367758566	0	0	0	-5.153512389296556	-5.693004254272409	-0.366478041897366	78.33708573741967	33.11892984228881	4.958480735206555	21.58725260139826	110.5879451004968	0	0	33.0433823593106	-16.85826804631406	0.4159100802591428	47.17128268484579	143.1410227466141	0	0
14.23999999999979	-5.524203921123346	-5.402591663008621	26.84958773641504	0	0.9399999999999999	0	44.25511371764013	-10.41765194835868	-10.46339943783636	54.35470289625997	0.9486685294830343	0	0	0	44.25511371764013	-10.41765194835868	-10.46339943783636	54.35470289625997	0.9486685294830343	0	0	0	-5.155954562442411	-5.687390839509915	-0.3798775494675757	78.40844350617897	33.15717115474948	4.941792747036053	21.37694929700028	110.5063304283812	0	0	33.03830692316357	-16.88014567419261	0.414666816334152	47.13460832336552	143.1263245082473	0	0
14.25999999999978	-5.527844593522694	-5.398216172475864	26.90796308228913	0	0.9399999999999999	0	44.25600180522581	-10.41655777348342	-10.4624275824653	54.35525374330283	0.9486781435776072	0	0	0	44.25600180522581	-10.41655777348342	-10.4624275824653	54.35525374330283	0.9486781435776072	0	0	0	-5.157787118557399	-5.681110709899182	-0.3620427197124128	78.43823406382457	33.11372914328286	4.972731990085775	21.33672144873351	110.4384370563911	0	0	33.05352603841099	-16.8422888068618	0.5124536686818905	47.14268283164587	143.0989692713386	0	0
14.27999999999978	-5.55212055950164	-5.396754636618746	26.92552626857288	0	0.9399999999999999	0	44.25567275480212	-10.4172822937268	-10.46292423799224	54.35507047304485	0.9486749449081844	0	0	0	44.25567275480212	-10.4172822937268	-10.46292423799224	54.35507047304485	0.9486749449081844	0	0	0	-5.174390633790241	-5.675934818369853	-0.3141729433650199	78.6584022598516	32.99722559174172	4.852744243600841	21.13283308509932	110.3925487074642	0	0	33.11620012091324	-16.80470090625753	0.6076921034339487	47.09059087827733	143.0940816047442	0	0
14.29999999999978	-5.554861628335779	-5.395611578708997	26.90314815587146	0	0.9399999999999999	0	44.25588329207998	-10.41687196469385	-10.46263178250799	54.35519318151272	0.9486770865749687	0	0	0	44.25588329207998	-10.41687196469385	-10.46263178250799	54.35519318151272	0.9486770865749687	0	0	0	-5.175471659652656	-5.675063339454085	-0.2985132075798633	78.836010055963	32.94331891127266	4.656637276641101	21.04545663313459	110.465721354426	0	0	33.13001293780896	-16.825884202579	0.60191510448513	47.04656201509579	143.1067276716314	0	0
14.31999999999978	-5.55698647797616	-5.363980467593619	26.82594492317843	0	0.9399999999999999	0	44.25596006664004	-10.41672358870992	-10.46252572356808	54.35523827289087	0.9486778735679817	0	0	0	44.25596006664004	-10.41672358870992	-10.46252572356808	54.35523827289087	0.9486778735679817	0	0	0	-5.165643187196623	-5.641962654326912	-0.325299528725505	78.9304060595493	32.94133983413249	4.617780845072099	21.03376065605985	110.5045366945618	0	0	33.0688889970296	-16.82558878943741	0.4679827191966519	47.02136962060588	143.1118391356655	0	0
14.33999999999978	-5.560810469518912	-5.345535700636052	26.79568752494004	0	0.9399999999999999	0	44.25432412914916	-10.41844192158874	-10.46420328286865	54.35421083644844	0.9486599414192063	0	0	0	44.25432412914916	-10.41844192158874	-10.46420328286865	54.35421083644844	0.9486599414192063	0	0	0	-5.157739453577112	-5.628277401506651	-0.334390113555538	79.00191087197784	32.93650208917924	4.599107228531088	20.94077337332658	110.5421948595809	0	0	33.05302115167179	-16.85673589036424	0.4066170302547978	46.97426086039717	143.1917267706998	0	0
